# xmcd
#
# Track frame offsets:
# 150
# 21491
# 37346
# 52370
# 67115
# 86895
# 108348
# 129831
# 146832
# 170826
# 190373
# 206311
# 235048
#
# Disc length: 3344 seconds
#
#
# Revision: 0
# Processed by: cddbd v1.5.2PL0 Copyright (c) Steve Scherf et al.
# Submitted via: FreeRIP 2.945 
#
DISCID=cc0d0e0d
DTITLE=The Hiptones - Right Now
DYEAR=2006
DGENRE=Rhythmic Soul
TTITLE0=I've Been Loving You Too Long
TTITLE1=Crescent Moon
TTITLE2=That Driving Beat
TTITLE3=Cant Get You Off My Mind
TTITLE4=Devil's Got A Hold On Me
TTITLE5=Right Now
TTITLE6=Jumpin' With Jimmy
TTITLE7=Love's Gonna Get You
TTITLE8=Hound Dog
TTITLE9=Ninety-Nine and a Half (Won't Do)
TTITLE10=Hiptology
TTITLE11=Something's Gotta Give
TTITLE12=I Saw The Light
EXTD=
EXTT0=
EXTT1=
EXTT2=
EXTT3=
EXTT4=
EXTT5=
EXTT6=
EXTT7=
EXTT8=
EXTT9=
EXTT10=
EXTT11=
EXTT12=
PLAYORDER=
